<svg id="SvgjsSvg1000" xmlns="http://www.w3.org/2000/svg" viewBox="0 0 30 30">
<path d="m16.83181,14.35031c1.06735-.54221,1.86109-1.11117,2.49733-1.7903,1.33546-1.42663,1.38088-3.3042.11582-4.78338-.5962-.69665-1.35749-1.26698-2.4686-1.84945-1.76065-.92566-3.61498-1.47238-5.03359-1.84522-1.94067-.50932-3.91638-.81593-5.59316-1.04873l-.07793-.01269c-.0787-.01356-.13977-.02054-.18656-.02054-.37691,0-.56797.25691-.56797.76365-.02109,7.09794-.02186,12.28146-.00703,12.75387.00401.12791.02817.35324.18206.50619.1217.12088.28668.17052.4382.17052.04399,0,.09463-.00384.15251-.0123,1.51999-.22226,3.24252-.47417,4.89536-.87112,1.59907-.38586,3.68627-.95735,5.65357-1.9605Zm-7.56354-1.711c-.00071-1.69134-.00137-3.38278-.00209-5.07412-.00005-.15064.13027-.2691.27954-.24922,1.44431.19167,3.31364.63986,5.25492,1.69952.51827.28289.98909.58066,1.4146.88019.13675.09627.14131.29903.00862.40074-.40602.31106-.86234.62201-1.37226.91621-1.97796,1.14132-3.9111,1.53965-5.31296,1.67673-.1463.01428-.27031-.10297-.27037-.25005Z" stroke-width="0"></path><path d="m24.49843,20.18643v-6.15196c0-.01236-.00049-.02471-.00143-.03696-.00505-.06541-.01692-.134-.0374-.21578-.03784-.15141-.14696-.27498-.2925-.33127-.05602-.02158-.11467-.03224-.1731-.03224-.09353,0-.18628.02729-.26619.08051-.04108.02735-.08183.05503-.12285.08699-.01131.00879-.02224.01807-.03268.02784-.6442.60081-1.4029,1.12095-2.31928,1.59012-.32726.17041-.48488.43078-.48488.79759.00665,2.2441.00697,4.48704.00395,6.72976-1.32256-.34-4.83303-1.26692-6.23049-1.97422-.29837-.15108-1.02951-.52107-.97432-.84163.01043-.06063.04635-.10407.19386-.21902.71329-.55605,1.5943-.95015,1.59435-.95021.02433-.01087.08414-.0486.15915-.10319.14543-.10572.21957-.28388.19205-.46159-.02746-.17766-.15196-.32512-.32248-.38196-.05618-.01873-.11225-.03323-.1731-.04729-.01829-.00423-.0368-.00736-.05547-.00945-.37241-.04097-.71702-.06096-1.05345-.06096-.48417,0-.9328.0413-1.37149.1262-1.13858.2261-2.03551.71439-2.74419,1.49319-.27855.30343-.37823.66463-.30326,1.10266.15136.89765.61932,1.66712,1.47249,2.42039.76711.67127,1.677,1.21805,2.95189,1.77448,1.69469.73696,3.50278,1.28867,5.52825,1.68694.91369.18129,1.84555.33056,2.74671.47488.43391.06953.86777.139,1.30092.21215.09468.01554.16772.02757.24417.02757.25422,0,.45956-.1451.53573-.37867.03504-.10731.03504-.20479.03504-.32825.00236-1.35765.00154-2.71607.00082-4.07344l-.00082-2.03321Z" stroke-width="0"></path></svg>