<?xml version="1.0" encoding="utf-8"?>
<!-- Generator: Adobe Illustrator 28.0.0, SVG Export Plug-In . SVG Version: 6.00 Build 0)  -->
<svg version="1.1" id="Layer_1" xmlns="http://www.w3.org/2000/svg" xmlns:xlink="http://www.w3.org/1999/xlink" x="0px" y="0px" fill="white"
	 viewBox="0 0 38 48" style="enable-background:new 0 0 38 48;" xml:space="preserve">
<g>
	<path d="M11.4,26.6c3.2-0.8,7.4-1.9,11.3-3.9c2.1-1.1,3.7-2.2,5-3.6c2.7-2.9,2.8-6.6,0.2-9.6C26.7,8.2,25.2,7,23,5.9
		C19.4,4,15.7,2.9,12.9,2.2C9,1.1,5.1,0.5,1.7,0.1L1.5,0C1.4,0,1.3,0,1.2,0C0.4,0,0,0.5,0,1.5C0,15.7,0,26.1,0,27
		c0,0.3,0.1,0.7,0.4,1c0.2,0.2,0.6,0.3,0.9,0.3c0.1,0,0.2,0,0.3,0C4.6,27.9,8.1,27.4,11.4,26.6z M7.5,9.1c0-0.3,0.3-0.5,0.6-0.5
		C11,9,14.7,9.9,18.6,12c1,0.6,2,1.2,2.8,1.8c0.3,0.2,0.3,0.6,0,0.8c-0.8,0.6-1.7,1.2-2.7,1.8c-4,2.3-7.8,3.1-10.6,3.4
		c-0.3,0-0.5-0.2-0.5-0.5C7.5,15.9,7.5,12.5,7.5,9.1z"/>
	<path d="M38,34.4V22.1c0,0,0,0,0-0.1c0-0.1,0-0.3-0.1-0.4c-0.1-0.3-0.3-0.5-0.6-0.7c-0.1,0-0.2-0.1-0.3-0.1c-0.2,0-0.4,0.1-0.5,0.2
		c-0.1,0.1-0.2,0.1-0.2,0.2c0,0,0,0-0.1,0.1c-1.3,1.2-2.8,2.2-4.6,3.2c-0.7,0.3-1,0.9-1,1.6c0,4.5,0,9,0,13.5
		c-2.6-0.7-9.7-2.5-12.5-3.9c-0.6-0.3-2.1-1-1.9-1.7c0-0.1,0.1-0.2,0.4-0.4c1.4-1.1,3.2-1.9,3.2-1.9c0,0,0.2-0.1,0.3-0.2
		c0.3-0.2,0.4-0.6,0.4-0.9c-0.1-0.4-0.3-0.7-0.6-0.8c-0.1,0-0.2-0.1-0.3-0.1c0,0-0.1,0-0.1,0c-0.7-0.1-1.4-0.1-2.1-0.1
		c-1,0-1.9,0.1-2.7,0.3c-2.3,0.5-4.1,1.4-5.5,3c-0.6,0.6-0.8,1.3-0.6,2.2c0.3,1.8,1.2,3.3,2.9,4.8c1.5,1.3,3.4,2.4,5.9,3.5
		c3.4,1.5,7,2.6,11.1,3.4c1.8,0.4,3.7,0.7,5.5,0.9c0.9,0.1,1.7,0.3,2.6,0.4c0.2,0,0.3,0.1,0.5,0.1c0.5,0,0.9-0.3,1.1-0.8
		C38,47,38,46.8,38,46.6c0-2.7,0-5.4,0-8.1L38,34.4z"/>
</g>
</svg>
