<svg width="30" height="30" viewBox="0 0 30 30" fill="none" xmlns="http://www.w3.org/2000/svg">
<path fill-rule="evenodd" clip-rule="evenodd" d="M12.5996 22.7353C12.209 23.1258 11.5759 23.1258 11.1854 22.7353L4.82139 16.3713L4.11428 15.6642C3.72376 15.2737 3.72376 14.6405 4.11428 14.25L4.82139 13.5429L11.1853 7.17893C11.5759 6.7884 12.209 6.7884 12.5996 7.17893L13.3067 7.88604C13.6972 8.27656 13.6972 8.90973 13.3067 9.30025L9.60693 13L24.1357 13C24.688 13 25.1357 13.4477 25.1357 14L25.1357 16C25.1357 16.5523 24.688 17 24.1357 17L9.6927 17L13.3067 20.614C13.6972 21.0045 13.6972 21.6376 13.3067 22.0282L12.5996 22.7353Z" fill="#566C8C"/>
</svg>
