<svg width="30" height="30" viewBox="0 0 30 30" fill="none" xmlns="http://www.w3.org/2000/svg">
<path fill-rule="evenodd" clip-rule="evenodd" d="M25 6C25.7597 6 26.4535 6.28241 26.9821 6.74797C26.9022 6.88446 26.7971 7.01314 26.6649 7.12886L15.9877 16.4713C15.4222 16.9662 14.5778 16.9662 14.0122 16.4713L3.33513 7.12886C3.20288 7.01314 3.09779 6.88446 3.01793 6.74798C3.54649 6.28241 4.24026 6 5 6H25ZM27.3234 7.88144C27.4389 7.7803 27.5421 7.67322 27.6332 7.56145C27.8671 7.98854 28 8.47875 28 9V20C28 20.5213 27.8671 21.0115 27.6332 21.4386C27.5421 21.3268 27.4389 21.2197 27.3234 21.1186L19.7593 14.5L27.3234 7.88144ZM19 15.1644L16.6463 17.2239C15.7037 18.0486 14.2963 18.0487 13.3537 17.2239L11 15.1644L3.33513 21.8711C3.20288 21.9869 3.09779 22.1155 3.01793 22.252C3.54649 22.7176 4.24027 23 5 23H25C25.7597 23 26.4535 22.7176 26.9821 22.252C26.9022 22.1155 26.7971 21.9869 26.6649 21.8711L19 15.1644ZM2.36676 21.4385C2.13294 21.0115 2 20.5213 2 20V9C2 8.47875 2.13294 7.98855 2.36675 7.56146C2.45791 7.67323 2.56104 7.7803 2.67663 7.88144L10.2407 14.5L2.67663 21.1186C2.56104 21.2197 2.45791 21.3268 2.36676 21.4385Z" fill="#566C8C"/>
</svg>
